<?xml version="1.0" encoding="UTF-8"?>
<!DOCTYPE svg PUBLIC "-//W3C//DTD SVG 1.1//EN" "http://www.w3.org/Graphics/SVG/1.1/DTD/svg11.dtd">
<!-- Creator: CorelDRAW X8 -->
<svg xmlns="http://www.w3.org/2000/svg" xml:space="preserve" width="8.5in" height="11in" version="1.1" style="shape-rendering:geometricPrecision; text-rendering:geometricPrecision; image-rendering:optimizeQuality; fill-rule:evenodd; clip-rule:evenodd"
viewBox="0 0 8500 11000"
 xmlns:xlink="http://www.w3.org/1999/xlink">
 <defs>
  <style type="text/css">
   <![CDATA[
    .str0 {stroke:#373435;stroke-width:6.94488}
    .fil0 {fill:none}
   ]]>
  </style>
   <clipPath id="id0">
    <path d="M4506 1759c1807,0 3272,1464 3272,3271 0,1807 -1465,3272 -3272,3272 -1807,0 -3272,-1465 -3272,-3272 0,-1807 1465,-3271 3272,-3271z"/>
   </clipPath>
    <clipPath id="id1">
     <path d="M4506 1759c1807,0 3272,1464 3272,3271 0,1807 -1465,3272 -3272,3272 -1807,0 -3272,-1465 -3272,-3272 0,-1807 1465,-3271 3272,-3271z"/>
    </clipPath>
    <clipPath id="id2">
     <path d="M4506 1759c1807,0 3272,1464 3272,3271 0,1807 -1465,3272 -3272,3272 -1807,0 -3272,-1465 -3272,-3272 0,-1807 1465,-3271 3272,-3271z"/>
    </clipPath>
 </defs>
 <g id="Layer_x0020_1">
  <metadata id="CorelCorpID_0Corel-Layer"/>
  <g>
  </g>
  <g style="clip-path:url(#id0)">
   <g>
   </g>
   <g style="clip-path:url(#id1)">
    <image x="-265" y="228" width="9490" height="9490" xlink:href="alfaruq_Images\alfaruq_ImgID1.png"/>
   </g>
   <g style="clip-path:url(#id2)">
   </g>
  </g>
  <path class="fil0 str0" d="M4506 1759c1807,0 3272,1464 3272,3271 0,1807 -1465,3272 -3272,3272 -1807,0 -3272,-1465 -3272,-3272 0,-1807 1465,-3271 3272,-3271z"/>
 </g>
</svg>
